# xmcd
#
# Track frame offsets: 
#        150
#        17729
#        31994
#        47315
#        65453
#        78898
#        94529
#        115362
#        128751
#        148002
#        159601
#        171143
#        186368
#        202877
#        220610
#        234109
#        246096
#        260697
#        275338
#
# Disc length: 3828 seconds
#
# Revision: 0
# Processed by: cddbd v1.5.2PL0 Copyright (c) Steve Scherf et al.
# Submitted via: ExactAudioCopy v0.99pb5
#
DISCID=fa0ef213
DTITLE=Various Artist - Country Music Sampler
DYEAR=2000
DGENRE=Country
TTITLE0=Steve Wariner, Faith in you
TTITLE1=Tracy Lawrence, Lonely
TTITLE2=Chad Brock, Yes!
TTITLE3=The Charlie Daniels Band, Road Dogs
TTITLE4=Anita Cochran, Good Times
TTITLE5=Front Range, Leave Me To Cry
TTITLE6=Dale Ann Bradley, I Still Haven't Foud What I'm Looking For
TTITLE7=Seldom Scene, Blue and Lonesome
TTITLE8=Luke Reed, Adobe Walls
TTITLE9=Ray Price, Better Class of Losers
TTITLE10=Joanie Keller, Grindin' Wheel
TTITLE11=Craig Morgan, Something To Write Home About
TTITLE12=Keith Urban, It's A Love Thing
TTITLE13=James Talley, When I Need Some Love
TTITLE14=Mitchell John, I Couldn't Love Her Anymore
TTITLE15=Victor Sanz, I'm Gonna Be There
TTITLE16=Nancy Moore, More To Love Than This
TTITLE17=Deb Traylor, One Way Street
TTITLE18=Jim Roll, 1955
EXTD=
EXTT0=
EXTT1=
EXTT2=
EXTT3=
EXTT4=
EXTT5=
EXTT6=
EXTT7=
EXTT8=
EXTT9=
EXTT10=
EXTT11=
EXTT12=
EXTT13=
EXTT14=
EXTT15=
EXTT16=
EXTT17=
EXTT18=
PLAYORDER=
